<?xml version="1.0" standalone="no"?><!DOCTYPE svg PUBLIC "-//W3C//DTD SVG 1.1//EN" "http://www.w3.org/Graphics/SVG/1.1/DTD/svg11.dtd"><svg t="1593395178841" class="icon" viewBox="0 0 1024 1024" version="1.1" xmlns="http://www.w3.org/2000/svg" p-id="2759" width="128" height="128" xmlns:xlink="http://www.w3.org/1999/xlink"><defs><style type="text/css">@font-face { font-family: element-icons; src: url("chrome-extension://moombeodfomdpjnpocobemoiaemednkg/fonts/element-icons.woff") format("woff"), url("chrome-extension://moombeodfomdpjnpocobemoiaemednkg/fonts/element-icons.ttf ") format("truetype"); }
</style></defs><path d="M192 857.6m-128 0a128 128 0 1 0 256 0 128 128 0 1 0-256 0Z" p-id="2760" fill="#60eefa"></path><path d="M160 262.4m-96 0a96 96 0 1 0 192 0 96 96 0 1 0-192 0Z" p-id="2761" fill="#60eefa"></path><path d="M806.4 704c25.6-44.8 44.8-102.4 44.8-160 0-51.2-12.8-96-32-140.8 76.8-25.6 128-96 128-179.2 0-108.8-83.2-192-192-192s-192 83.2-192 192v6.4c-12.8 0-19.2-6.4-32-6.4-179.2 0-320 140.8-320 320s140.8 320 320 320c44.8 0 83.2-6.4 115.2-25.6 6.4 64 64 108.8 128 108.8 70.4 0 128-57.6 128-128 0-51.2-38.4-102.4-96-115.2z m-166.4 38.4L467.2 563.2l-12.8-12.8v192h-51.2v-384h51.2v179.2c0-6.4 6.4-6.4 12.8-12.8l166.4-166.4h64l-192 185.6 204.8 198.4H640z" p-id="2762" fill="#60eefa"></path></svg>